<svg xmlns="http://www.w3.org/2000/svg" viewBox="0 0 256 256"><g fill="none" stroke-width="2"><path stroke="#e9e9e9" d="M12.08 112.06c-4.25 33.54 5.89 66.7 27.85 92.76 1.01 1.19 2.54 2.02 3.65 3.29 3.08 3.49 6.92 6.41 10.39 9.52 7.06 6.33 14.36 10.68 22.79 14.4q.46.2.77.59 1.61 2 4.7 2.64c4.2.86 8.67 3.76 13.2 4.82 6.08 1.42 11.86 2.93 18.09 3.51 12.37 1.15 22.94 1.49 35.06-1.08 1.51-.32 3.18-.09 4.78-.57q2.05-.62 3.42-.73c2.99-.23 6.17-1.66 8.56-2.4 3.5-1.08 6.54-3.29 10.15-4.23 3.47-.91 5.95-2.94 9.07-4.43 5.23-2.5 9.79-6.11 14.7-9.17q7.24-4.51 15.74-14.48c.71-.83 2-1.24 2.25-2.75a1.09 1.08-12.5 0 1 .49-.76c1.51-.98 6.19-7.03 6.98-8.76q.56-1.21 1.3-2.31 6.04-8.82 10.27-18.66.88-2.05 2.15-3.88.28-.41.32-.91c.19-2.31 1.44-4.42 1.92-6.26q3.46-13.18 4.23-18.54c1.91-13.18.82-29.48-3.06-44.5-3.71-14.38-8.91-26.93-17.47-38.87-1.3-1.82-2.44-4.31-4.28-6.29q-3.41-3.68-3.47-3.75c-4.59-5.55-9.95-10.1-15.42-14.75q-.86-.74-2.04-1.39c-2.64-1.45-4.88-3.66-7.01-5.05q-3.26-2.12-6.52-4.22c-1.64-1.06-3.94-1.57-5.65-3.3a1.32 1.26-19 0 0-.81-.37q-1.67-.15-2.83-1.29-.31-.31-.73-.43c-4.64-1.31-9.04-3.5-13.58-4.46-7.24-1.52-14.6-3.59-21.73-4.02q-14.04-.85-28.04.56c-4.48.45-9.22 2.11-13.81 3.14-9.09 2.02-17.42 4.97-24.64 9.16q-3.03 1.76-4.62 2.27-.47.16-.83.5c-1.48 1.41-3.28 1.93-4.77 3.2q-2.21 1.87-6.65 4.64-4.29 2.69-12.26 10.71c-3.07 3.08-5.75 6.88-8.69 10.34q-1.27 1.51-3.13 4.24c-3.6 5.28-6.67 10.05-10.4 17.97-.61 1.31-.81 3.16-2.31 4.33a1.56 1.55 80.5 0 0-.55.78q-2 6.23-4.11 12.43-1.69 4.98-2.95 16.17c-.03.21-.11.26-.27.35a.42.41-11.3 0 0-.2.29" vector-effect="non-scaling-stroke"/><path stroke="#8fd4f9" d="M93.21 37.5q24.89 6.88 47.29 19.71" vector-effect="non-scaling-stroke"/><path stroke="#8dd0f9" d="M140.5 57.21q21.57 12.63 39.34 30.27a1.7 1.7 0 0 0 2.9-1.21q-.05-13.66-2.53-27.52" vector-effect="non-scaling-stroke"/><path stroke="#8fd4f9" d="M180.21 58.75q-1.46-10.42-4.5-20.5" vector-effect="non-scaling-stroke"/><path stroke="#91daf9" d="M175.71 38.25c-2.23-8.57-2.51-13.69-12.14-16.58-30.05-9.05-60.81-7.05-87.89 8.29-2.36 1.34-1.93 3.41.72 3.93q8.43 1.67 16.81 3.61" vector-effect="non-scaling-stroke"/><path stroke="#2dbcff" d="M175.71 38.25q-.54-.01-.55-.54-.01-.11-.05-.02-.07.14-.17.21a.2.19 60.5 0 1-.3-.09l-.41-.94q-.43-.99-.49.08-.08 1.23-1.05 2.06a1.33 1.3 24.6 0 1-.89.32q-6.19-.06-12.38.02c-2.42.04-5.15-.43-7.91-.28-11.32.61-22.79.09-34.15.36-5.8.14-10.84-.73-16.32-1.84-1.56-.32-2.87-1.79-4.76-.45a.84.81 34.9 0 1-.68.11l-3-.85q-1.35-.38-.23.47l.84.63" vector-effect="non-scaling-stroke"/><path stroke="#29b2ff" d="M180.21 58.75q-.68-.3-1.34-.17a.8.79-88.1 0 0-.6.57l-.68 2.62a.57.57 0 0 1-.54.42l-25.38.29a1.21 1.17-20.6 0 1-.88-.38l-1.55-1.73a.16.16 0 0 0-.24 0l-.23.26a.26.26 0 0 1-.4-.03q-1.06-1.53-2.8-1.64-.5-.04-.92-.29l-3.26-1.98a.61.59-53.3 0 0-.77.12q-.14.17-.12.4" vector-effect="non-scaling-stroke"/><path stroke="#8bcaf9" d="m193.21 71.5 2.05 17.26" vector-effect="non-scaling-stroke"/><path stroke="#88c3f9" d="m195.26 88.76.28 17.24" vector-effect="non-scaling-stroke"/><path stroke="#86bdf9" d="M195.54 106q-.65 21.5-6.31 44.49-.61 2.49 1.75 2.76a1.46 1.46 0 0 0 .93-.2q27.19-16.37 45.32-38.07 2.76-3.3.8-8.54" vector-effect="non-scaling-stroke"/><path stroke="#88c3f9" d="M238.03 106.44q-.78-6.41-3.07-12.69" vector-effect="non-scaling-stroke"/><path stroke="#8bcaf9" d="M234.96 93.75q-4.28-14.19-12.46-26.54" vector-effect="non-scaling-stroke"/><path stroke="#8dd0f9" d="M222.5 67.21q-14.41-22.92-36.46-35.24-2.04-1.14-2.73 1.28a1.63 1.59-48.1 0 0 .04.96q6.69 18.17 9.86 37.29" vector-effect="non-scaling-stroke"/><path stroke="#25a7ff" d="M222.5 67.21c-1.25 1.49 1.24 4.13.81 6.61a.62.61-84.9 0 1-.6.51l-26.32.14a.79.79 0 0 1-.74-.52l-1.05-2.97a.5.5 0 0 0-.73-.27q-.53.31-.66.79" vector-effect="non-scaling-stroke"/><path stroke="#219bff" d="M234.96 93.75q-.66-.26-1.19.17a.73.73 0 0 0-.24.79c.58 1.76-.7 2.53-2.27 2.52q-12.21-.09-24.42-.26a1.29 1.29 0 0 0-.78.24q-2.68 1.95-5.25.22a1.31 1.28-31.3 0 0-.91-.21l-1.33.18a.64.64 0 0 1-.72-.53q-.65-4.25-2.59-8.11" vector-effect="non-scaling-stroke"/><path stroke="#1c8eff" d="M238.03 106.44q-1.51 2.56-1.28 5.63a1.34 1.33-29.5 0 1-.25.89q-2.02 2.74-6.23 2.76-16.16.09-32.34-.03a.58.57-2.9 0 1-.56-.5c-.17-1.38-.44-9.16-1.09-9.66a.34.34 0 0 0-.49.08l-.25.39" vector-effect="non-scaling-stroke"/><path stroke="#8dd0f9" d="M47.75 51.71q-8.44 8.87-14.46 19.54" vector-effect="non-scaling-stroke"/><path stroke="#8bcaf9" d="M33.29 71.25q-5.18 8.46-8.47 17.73" vector-effect="non-scaling-stroke"/><path stroke="#88c3f9" d="M24.82 88.98q-6.76 17.59-6.77 36.38c0 2.62 2.35 2.68 3.8.95Q37.38 107.71 57 93.46" vector-effect="non-scaling-stroke"/><path stroke="#8bcaf9" d="M57 93.46Q73.28 81.77 91.54 73.5" vector-effect="non-scaling-stroke"/><path stroke="#8dd0f9" d="M91.54 73.5q13.4-5.73 27.39-9.77c2.62-.75 2.59-2.7.32-3.97q-9.45-5.25-19.5-9.22" vector-effect="non-scaling-stroke"/><path stroke="#8fd4f9" d="M99.75 50.54c-6.87-2.88-34.7-13.47-40.58-9.39q-5.61 3.89-11.42 10.56" vector-effect="non-scaling-stroke"/><path stroke="#29b2ff" d="M99.75 50.54q-1.13.25-2.24.01-1.65-.36-.1.33l2.41 1.07a.2.19-64.6 0 1 .09.27l-.15.27a.32.31-60.8 0 0 .11.41l.67.43a.32.31-60.7 0 1 .11.4c-.07.14-.54.37-.7.38q-34.47.41-48.39.08-2.26-.06-3.57.41a.28.28 0 0 1-.37-.27l.13-2.62" vector-effect="non-scaling-stroke"/><path stroke="#25a7ff" d="m91.54 73.5-.02-.26a.4.4 0 0 0-.42-.36l-3.77.16a1.25 1.25 0 0 0-.77.31q-2.43 2.18-5.8 2.12-21.05-.35-42.1-.21c-1.42.01-2.99-.65-4.63-.62a.56.55 11.8 0 1-.52-.79l.86-1.87a.48.48 0 0 0-.18-.61q-.44-.28-.9-.12" vector-effect="non-scaling-stroke"/><path stroke="#219bff" d="M57 93.46q.18-.79-.12-1.32a.38.37-33.4 0 0-.56-.11q-4.64 3.49-7.99 3.54-11.29.16-23.06.47a.83.82 8 0 1-.81-1.07q.84-2.69.36-5.99" vector-effect="non-scaling-stroke"/><path stroke="#969696" d="M94.25 89.71c-5.49 1.98-5.93 5.31-7.84 11.37q-2.82 8.95-4.62 18.17" vector-effect="non-scaling-stroke"/><path stroke="#8a8a8a" d="M81.79 119.25c-.98 5.07-4.18 19.7-2.54 24.04" vector-effect="non-scaling-stroke"/><path stroke="#828282" d="M79.25 143.29q.31 1.88 1.01 2.69 15.42 17.82 34.77 31.21c2.31 1.6 4.34 2.04 6.96 1.53q22.9-4.45 43.86-14.57c6.02-2.91 9.5-23.27 10.69-29.65" vector-effect="non-scaling-stroke"/><path stroke="#8a8a8a" d="M176.54 134.5q1.66-7.55 2.17-15.25" vector-effect="non-scaling-stroke"/><path stroke="#969696" d="M178.71 119.25q2.09-6.62-1.27-11.19-2.9-3.93-12.94-13.35" vector-effect="non-scaling-stroke"/><path stroke="#9c9c9c" d="M164.5 94.71c-4.32-4.04-21.74-20.05-27.25-18.97q-22.35 4.4-43 13.97" vector-effect="non-scaling-stroke"/><path stroke="#3f3f3f" d="M164.5 94.71q.55 2.51 2.01 3.95a.8.8 0 0 1-.56 1.37c-21.77-.18-43.32.07-64.99-.19-2.95-.04-7.95.58-11.99-.09a.54.53 8.1 0 1-.44-.58q.7-5.95 6.22-8.19a1 .99-87.3 0 0 .52-.48l.16-.32a.29.29 0 0 0-.24-.42l-.94-.05" vector-effect="non-scaling-stroke"/><path stroke="#2d2d2d" d="M178.71 119.25q-.82-.37-1.34.12a1.14 1.11 69.4 0 0-.36.83l-.01 2.38a.55.54 88.9 0 1-.52.55c-28.3 1.11-56.95.4-85.28.29-2.26-.01-5.14.53-7.84.25a.68.68 0 0 1-.61-.68l.01-3.73a.33.32-14.1 0 0-.48-.28l-.49.27" vector-effect="non-scaling-stroke"/><path stroke="#1a1a1a" d="m176.54 134.5-.14-.94a.48.48 0 0 0-.67-.36c-.6.28-2.97 11.59-3.4 13.22-.6 2.25-1.55 3.87-2.68 5.85a2.03 2.02-73.9 0 1-1.82 1.01q-9.58-.31-19.08.04-3.16.11-4.65.8a.61.6 77.9 0 0-.35.55v.45a.59.59 0 0 1-.62.59l-1.73-.06a.67.66 86.4 0 1-.64-.58l-.12-.96a.74.73-2.7 0 0-.71-.64q-20.46-.78-40.93-1-2.45-.02-4.05.81a1.32 1.32 0 0 1-.9.11c-2.28-.58-3.83 1.68-6.13-.81q-2.94-3.19-5.92-6.36a1.41 1.4 21.2 0 1-.38-.85q-.18-2.17-2.37-2.08" vector-effect="non-scaling-stroke"/><path stroke="#83b4f9" d="M26.02 134.21c-2.76 2.8-7.01 6.81-6.55 11.04q.79 7.27 3.78 15.51" vector-effect="non-scaling-stroke"/><path stroke="#80aef9" d="M23.25 160.76q3.1 10.85 8.75 20.53" vector-effect="non-scaling-stroke"/><path stroke="#7ea8f9" d="M32 181.29q14.24 26.07 39.7 41.22c1.41.84 2.62.51 3.19-.99a1.39 1.36 46.1 0 0 .01-.95q-6.44-17.6-9.69-36.07" vector-effect="non-scaling-stroke"/><path stroke="#80aef9" d="m65.21 184.5-2-17" vector-effect="non-scaling-stroke"/><path stroke="#83b4f9" d="m63.21 167.5-.5-14" vector-effect="non-scaling-stroke"/><path stroke="#86bdf9" d="M62.71 153.5q.02-25.41 6.47-49.95a1.02 1.01-61.1 0 0-.28-.99l-1.12-1.06a.84.84 0 0 0-1-.11q-22.7 13.57-40.76 32.82" vector-effect="non-scaling-stroke"/><path stroke="#167fff" d="m62.71 153.5-.45-7.87a.49.48-79.8 0 0-.28-.41l-.36-.18a.42.42 0 0 0-.59.27c-.35 1.25-1.23 1.96-2.59 1.97q-11.23.14-22.45.25c-4 .04-9.44.73-14.21.51a.65.63-3.3 0 1-.6-.52q-.95-5.16 2.44-8.93c.73-.81 1.96-1.06 2.51-2.29a1.14 1.13-44.7 0 0 .01-.9q-.23-.54-.12-1.19" vector-effect="non-scaling-stroke"/><path stroke="#1070ff" d="m63.21 167.5-1.08-.3a1.3 1.26-49.2 0 0-.9.08c-3.23 1.54-5.93.04-8.7.01q-7.37-.05-14.75-.07c-3.04 0-6.53 1.1-10.09.67a.78.76 83.3 0 1-.65-.53q-1.22-3.69-3.79-6.6" vector-effect="non-scaling-stroke"/><path stroke="#0b63ff" d="M65.21 184.5q-2.46 1.2-2.17 3.01a1.44 1.44 0 0 1-1.57 1.65c-7.57-.77-14.73-.27-22.44-.15a1.21 1.19-22.2 0 1-.85-.35c-2.43-2.49-2.87-5.73-6.18-7.37" vector-effect="non-scaling-stroke"/><path stroke="#80aef9" d="m186.5 170.96-16 8.5" vector-effect="non-scaling-stroke"/><path stroke="#7ea8f9" d="M170.5 179.46q-15.47 7.04-31.76 11.92-1.81.54-1.35 2.15a1.74 1.74 0 0 0 .85 1.06q25.42 14.04 53.77 19.82c2.16.44 5.44.52 6.96-.68q16.6-13.18 26.82-31.73" vector-effect="non-scaling-stroke"/><path stroke="#80aef9" d="M225.79 182q3.64-5.98 6.17-12.5" vector-effect="non-scaling-stroke"/><path stroke="#83b4f9" d="M231.96 169.5q8.18-19.16 8.22-40.02c.01-1.57-.76-2.41-2.33-2.25a1.22 1.21-73.1 0 0-.82.44q-21.58 25.93-50.53 43.29" vector-effect="non-scaling-stroke"/><path stroke="#1070ff" d="M231.96 169.5q-1.56.79-2.04 2.36-.15.48-.49.85c-1.41 1.55-3.17 4.69-5.29 4.95a.12.12 0 0 1-.14-.12v-.3a.17.17 0 0 0-.17-.17l-42.2-.12a.42.42 0 0 1-.19-.79q3.28-1.7 5.06-5.2" vector-effect="non-scaling-stroke"/><path stroke="#0b63ff" d="M225.79 182q-3.5 1.11-5.29 4.41a.91.89-77.1 0 1-.73.47q-8.81.65-17.62.69c-2.27.01-5.17.7-7.8.45-10.08-.96-20.24-.54-30.35-.39q-1.58.02-2.44-1.26a.4.4 0 0 0-.68.04l-.55 1.04q-.58 1.08-.46-.14.24-2.39 2.42-2.3a1.81 1.79 30.2 0 0 1.05-.27l7.32-4.43a.41.41 0 0 0 .13-.57q-.09-.15-.29-.28" vector-effect="non-scaling-stroke"/><path stroke="#7ea8f9" d="M76.29 182q.82 12.83 3.96 25.29" vector-effect="non-scaling-stroke"/><path stroke="#7ba0f9" d="M80.25 207.29c1.02 5.2 4.32 22.29 9.77 24.21q47.64 16.83 92.03-6.24c1.41-.73 2.92-2.03 1.68-3.59a2.16 2.14-14 0 0-1.33-.79q-26.15-4.65-50.1-15.7" vector-effect="non-scaling-stroke"/><path stroke="#7ea8f9" d="M132.3 205.18q-20.42-9.84-38.26-23.93" vector-effect="non-scaling-stroke"/><path stroke="#80aef9" d="m94.04 181.25-15.85-14.11a1.59 1.59 0 0 0-2.64 1.12q-.29 6.82.74 13.74" vector-effect="non-scaling-stroke"/><path stroke="#0b63ff" d="m94.04 181.25.44 1.56a1.48 1.46-80.3 0 0 .56.8q1.61 1.16.83 3.35a.67.66-81.6 0 1-.57.43q-7.93.43-15.81-.33a.71.7.5 0 1-.63-.64q-.29-2.91-2.57-4.42" vector-effect="non-scaling-stroke"/><path stroke="#0655ff" d="M132.3 205.18q.02 2.87 1.56 3.97a.66.65-26.6 0 1-.4 1.19c-17.18-.52-33.91-.06-50.85-.26a.69.68 80.5 0 1-.65-.47l-.82-2.42a.36.36 0 0 0-.56-.16l-.33.26" vector-effect="non-scaling-stroke"/></g><path fill="#e0e0e0" d="M250.57 127.6a122.13 122.13 0 0 1-122.13 122.13A122.13 122.13 0 0 1 6.31 127.6 122.13 122.13 0 0 1 128.44 5.47 122.13 122.13 0 0 1 250.57 127.6ZM12.08 112.06c-4.25 33.54 5.89 66.7 27.85 92.76 1.01 1.19 2.54 2.02 3.65 3.29 3.08 3.49 6.92 6.41 10.39 9.52 7.06 6.33 14.36 10.68 22.79 14.4q.46.2.77.59 1.61 2 4.7 2.64c4.2.86 8.67 3.76 13.2 4.82 6.08 1.42 11.86 2.93 18.09 3.51 12.37 1.15 22.94 1.49 35.06-1.08 1.51-.32 3.18-.09 4.78-.57q2.05-.62 3.42-.73c2.99-.23 6.17-1.66 8.56-2.4 3.5-1.08 6.54-3.29 10.15-4.23 3.47-.91 5.95-2.94 9.07-4.43 5.23-2.5 9.79-6.11 14.7-9.17q7.24-4.51 15.74-14.48c.71-.83 2-1.24 2.25-2.75a1.09 1.08-12.5 0 1 .49-.76c1.51-.98 6.19-7.03 6.98-8.76q.56-1.21 1.3-2.31 6.04-8.82 10.27-18.66.88-2.05 2.15-3.88.28-.41.32-.91c.19-2.31 1.44-4.42 1.92-6.26q3.46-13.18 4.23-18.54c1.91-13.18.82-29.48-3.06-44.5-3.71-14.38-8.91-26.93-17.47-38.87-1.3-1.82-2.44-4.31-4.28-6.29q-3.41-3.68-3.47-3.75c-4.59-5.55-9.95-10.1-15.42-14.75q-.86-.74-2.04-1.39c-2.64-1.45-4.88-3.66-7.01-5.05q-3.26-2.12-6.52-4.22c-1.64-1.06-3.94-1.57-5.65-3.3a1.32 1.26-19 0 0-.81-.37q-1.67-.15-2.83-1.29-.31-.31-.73-.43c-4.64-1.31-9.04-3.5-13.58-4.46-7.24-1.52-14.6-3.59-21.73-4.02q-14.04-.85-28.04.56c-4.48.45-9.22 2.11-13.81 3.14-9.09 2.02-17.42 4.97-24.64 9.16q-3.03 1.76-4.62 2.27-.47.16-.83.5c-1.48 1.41-3.28 1.93-4.77 3.2q-2.21 1.87-6.65 4.64-4.29 2.69-12.26 10.71c-3.07 3.08-5.75 6.88-8.69 10.34q-1.27 1.51-3.13 4.24c-3.6 5.28-6.67 10.05-10.4 17.97-.61 1.31-.81 3.16-2.31 4.33a1.56 1.55 80.5 0 0-.55.78q-2 6.23-4.11 12.43-1.69 4.98-2.95 16.17c-.03.21-.11.26-.27.35a.42.41-11.3 0 0-.2.29Z"/><path fill="#f2f2f2" d="M39.93 204.82c-21.96-26.06-32.1-59.22-27.85-92.76a.42.41-11.3 0 1 .2-.29c.16-.09.24-.14.27-.35q1.26-11.19 2.95-16.17 2.11-6.2 4.11-12.43a1.56 1.55 80.5 0 1 .55-.78c1.5-1.17 1.7-3.02 2.31-4.33 3.73-7.92 6.8-12.69 10.4-17.97q1.86-2.73 3.13-4.24c2.94-3.46 5.62-7.26 8.69-10.34q7.97-8.02 12.26-10.71 4.44-2.77 6.65-4.64c1.49-1.27 3.29-1.79 4.77-3.2q.36-.34.83-.5 1.59-.51 4.62-2.27c7.22-4.19 15.55-7.14 24.64-9.16 4.59-1.03 9.33-2.69 13.81-3.14q14-1.41 28.04-.56c7.13.43 14.49 2.5 21.73 4.02 4.54.96 8.94 3.15 13.58 4.46q.42.12.73.43 1.16 1.14 2.83 1.29a1.32 1.26-19 0 1 .81.37c1.71 1.73 4.01 2.24 5.65 3.3q3.26 2.1 6.52 4.22c2.13 1.39 4.37 3.6 7.01 5.05q1.18.65 2.04 1.39c5.47 4.65 10.83 9.2 15.42 14.75q.06.07 3.47 3.75c1.84 1.98 2.98 4.47 4.28 6.29 8.56 11.94 13.76 24.49 17.47 38.87 3.88 15.02 4.97 31.32 3.06 44.5q-.77 5.36-4.23 18.54c-.48 1.84-1.73 3.95-1.92 6.26q-.04.5-.32.91-1.27 1.83-2.15 3.88-4.23 9.84-10.27 18.66-.74 1.1-1.3 2.31c-.79 1.73-5.47 7.78-6.98 8.76a1.09 1.08-12.5 0 0-.49.76c-.25 1.51-1.54 1.92-2.25 2.75q-8.5 9.97-15.74 14.48c-4.91 3.06-9.47 6.67-14.7 9.17-3.12 1.49-5.6 3.52-9.07 4.43-3.61.94-6.65 3.15-10.15 4.23-2.39.74-5.57 2.17-8.56 2.4q-1.37.11-3.42.73c-1.6.48-3.27.25-4.78.57-12.12 2.57-22.69 2.23-35.06 1.08-6.23-.58-12.01-2.09-18.09-3.51-4.53-1.06-9-3.96-13.2-4.82q-3.09-.64-4.7-2.64-.31-.39-.77-.59c-8.43-3.72-15.73-8.07-22.79-14.4-3.47-3.11-7.31-6.03-10.39-9.52-1.11-1.27-2.64-2.1-3.65-3.29ZM93.21 37.5q24.89 6.88 47.29 19.71 21.57 12.63 39.34 30.27a1.7 1.7 0 0 0 2.9-1.21q-.05-13.66-2.53-27.52-1.46-10.42-4.5-20.5c-2.23-8.57-2.51-13.69-12.14-16.58-30.05-9.05-60.81-7.05-87.89 8.29-2.36 1.34-1.93 3.41.72 3.93q8.43 1.67 16.81 3.61Zm100 34 2.05 17.26.28 17.24q-.65 21.5-6.31 44.49-.61 2.49 1.75 2.76a1.46 1.46 0 0 0 .93-.2q27.19-16.37 45.32-38.07 2.76-3.3.8-8.54-.78-6.41-3.07-12.69-4.28-14.19-12.46-26.54-14.41-22.92-36.46-35.24-2.04-1.14-2.73 1.28a1.63 1.59-48.1 0 0 .04.96q6.69 18.17 9.86 37.29ZM47.75 51.71q-8.44 8.87-14.46 19.54-5.18 8.46-8.47 17.73-6.76 17.59-6.77 36.38c0 2.62 2.35 2.68 3.8.95Q37.38 107.71 57 93.46 73.28 81.77 91.54 73.5q13.4-5.73 27.39-9.77c2.62-.75 2.59-2.7.32-3.97q-9.45-5.25-19.5-9.22c-6.87-2.88-34.7-13.47-40.58-9.39q-5.61 3.89-11.42 10.56Zm46.5 38c-5.49 1.98-5.93 5.31-7.84 11.37q-2.82 8.95-4.62 18.17c-.98 5.07-4.18 19.7-2.54 24.04q.31 1.88 1.01 2.69 15.42 17.82 34.77 31.21c2.31 1.6 4.34 2.04 6.96 1.53q22.9-4.45 43.86-14.57c6.02-2.91 9.5-23.27 10.69-29.65q1.66-7.55 2.17-15.25 2.09-6.62-1.27-11.19-2.9-3.93-12.94-13.35c-4.32-4.04-21.74-20.05-27.25-18.97q-22.35 4.4-43 13.97Zm-68.23 44.5c-2.76 2.8-7.01 6.81-6.55 11.04q.79 7.27 3.78 15.51 3.1 10.85 8.75 20.53 14.24 26.07 39.7 41.22c1.41.84 2.62.51 3.19-.99a1.39 1.36 46.1 0 0 .01-.95q-6.44-17.6-9.69-36.07l-2-17-.5-14q.02-25.41 6.47-49.95a1.02 1.01-61.1 0 0-.28-.99l-1.12-1.06a.84.84 0 0 0-1-.11q-22.7 13.57-40.76 32.82Zm160.48 36.75-16 8.5q-15.47 7.04-31.76 11.92-1.81.54-1.35 2.15a1.74 1.74 0 0 0 .85 1.06q25.42 14.04 53.77 19.82c2.16.44 5.44.52 6.96-.68q16.6-13.18 26.82-31.73 3.64-5.98 6.17-12.5 8.18-19.16 8.22-40.02c.01-1.57-.76-2.41-2.33-2.25a1.22 1.21-73.1 0 0-.82.44q-21.58 25.93-50.53 43.29ZM76.29 182q.82 12.83 3.96 25.29c1.02 5.2 4.32 22.29 9.77 24.21q47.64 16.83 92.03-6.24c1.41-.73 2.92-2.03 1.68-3.59a2.16 2.14-14 0 0-1.33-.79q-26.15-4.65-50.1-15.7-20.42-9.84-38.26-23.93l-15.85-14.11a1.59 1.59 0 0 0-2.64 1.12q-.29 6.82.74 13.74Z"/><path fill="#2fc1ff" d="M175.71 38.25q-.54-.01-.55-.54-.01-.11-.05-.02-.07.14-.17.21a.2.19 60.5 0 1-.3-.09l-.41-.94q-.43-.99-.49.08-.08 1.23-1.05 2.06a1.33 1.3 24.6 0 1-.89.32q-6.19-.06-12.38.02c-2.42.04-5.15-.43-7.91-.28-11.32.61-22.79.09-34.15.36-5.8.14-10.84-.73-16.32-1.84-1.56-.32-2.87-1.79-4.76-.45a.84.81 34.9 0 1-.68.11l-3-.85q-1.35-.38-.23.47l.84.63q-8.38-1.94-16.81-3.61c-2.65-.52-3.08-2.59-.72-3.93 27.08-15.34 57.84-17.34 87.89-8.29 9.63 2.89 9.91 8.01 12.14 16.58Z"/><path fill="#27adff" d="M222.5 67.21c-1.25 1.49 1.24 4.13.81 6.61a.62.61-84.9 0 1-.6.51l-26.32.14a.79.79 0 0 1-.74-.52l-1.05-2.97a.5.5 0 0 0-.73-.27q-.53.31-.66.79-3.17-19.12-9.86-37.29a1.63 1.59-48.1 0 1-.04-.96q.69-2.42 2.73-1.28 22.05 12.32 36.46 35.24Z"/><path fill="#2bb6ff" d="M175.71 38.25q3.04 10.08 4.5 20.5-.68-.3-1.34-.17a.8.79-88.1 0 0-.6.57l-.68 2.62a.57.57 0 0 1-.54.42l-25.38.29a1.21 1.17-20.6 0 1-.88-.38l-1.55-1.73a.16.16 0 0 0-.24 0l-.23.26a.26.26 0 0 1-.4-.03q-1.06-1.53-2.8-1.64-.5-.04-.92-.29l-3.26-1.98a.61.59-53.3 0 0-.77.12q-.14.17-.12.4-22.4-12.83-47.29-19.71l-.84-.63q-1.12-.85.23-.47l3 .85a.84.81 34.9 0 0 .68-.11c1.89-1.34 3.2.13 4.76.45 5.48 1.11 10.52 1.98 16.32 1.84 11.36-.27 22.83.25 34.15-.36 2.76-.15 5.49.32 7.91.28q6.19-.08 12.38-.02a1.33 1.3 24.6 0 0 .89-.32q.97-.83 1.05-2.06.06-1.07.49-.08l.41.94a.2.19 60.5 0 0 .3.09q.1-.07.17-.21.04-.09.05.02.01.53.55.54ZM99.75 50.54q-1.13.25-2.24.01-1.65-.36-.1.33l2.41 1.07a.2.19-64.6 0 1 .09.27l-.15.27a.32.31-60.8 0 0 .11.41l.67.43a.32.31-60.7 0 1 .11.4c-.07.14-.54.37-.7.38q-34.47.41-48.39.08-2.26-.06-3.57.41a.28.28 0 0 1-.37-.27l.13-2.62q5.81-6.67 11.42-10.56c5.88-4.08 33.71 6.51 40.58 9.39Z"/><path fill="#27adff" d="M99.75 50.54q10.05 3.97 19.5 9.22c2.27 1.27 2.3 3.22-.32 3.97q-13.99 4.04-27.39 9.77l-.02-.26a.4.4 0 0 0-.42-.36l-3.77.16a1.25 1.25 0 0 0-.77.31q-2.43 2.18-5.8 2.12-21.05-.35-42.1-.21c-1.42.01-2.99-.65-4.63-.62a.56.55 11.8 0 1-.52-.79l.86-1.87a.48.48 0 0 0-.18-.61q-.44-.28-.9-.12 6.02-10.67 14.46-19.54l-.13 2.62a.28.28 0 0 0 .37.27q1.31-.47 3.57-.41 13.92.33 48.39-.08c.16-.01.63-.24.7-.38a.32.31-60.7 0 0-.11-.4l-.67-.43a.32.31-60.8 0 1-.11-.41l.15-.27a.2.19-64.6 0 0-.09-.27l-2.41-1.07q-1.55-.69.1-.33 1.11.24 2.24-.01Zm80.46 8.21q2.48 13.86 2.53 27.52a1.7 1.7 0 0 1-2.9 1.21q-17.77-17.64-39.34-30.27-.02-.23.12-.4a.61.59-53.3 0 1 .77-.12l3.26 1.98q.42.25.92.29 1.74.11 2.8 1.64a.26.26 0 0 0 .4.03l.23-.26a.16.16 0 0 1 .24 0l1.55 1.73a1.21 1.17-20.6 0 0 .88.38l25.38-.29a.57.57 0 0 0 .54-.42l.68-2.62a.8.79-88.1 0 1 .6-.57q.66-.13 1.34.17Z"/><path fill="#23a1ff" d="M222.5 67.21q8.18 12.35 12.46 26.54-.66-.26-1.19.17a.73.73 0 0 0-.24.79c.58 1.76-.7 2.53-2.27 2.52q-12.21-.09-24.42-.26a1.29 1.29 0 0 0-.78.24q-2.68 1.95-5.25.22a1.31 1.28-31.3 0 0-.91-.21l-1.33.18a.64.64 0 0 1-.72-.53q-.65-4.25-2.59-8.11l-2.05-17.26q.13-.48.66-.79a.5.5 0 0 1 .73.27l1.05 2.97a.79.79 0 0 0 .74.52l26.32-.14a.62.61-84.9 0 0 .6-.51c.43-2.48-2.06-5.12-.81-6.61ZM33.29 71.25q.46-.16.9.12a.48.48 0 0 1 .18.61l-.86 1.87a.56.55 11.8 0 0 .52.79c1.64-.03 3.21.63 4.63.62q21.05-.14 42.1.21 3.37.06 5.8-2.12a1.25 1.25 0 0 1 .77-.31l3.77-.16a.4.4 0 0 1 .42.36l.02.26Q73.28 81.77 57 93.46q.18-.79-.12-1.32a.38.37-33.4 0 0-.56-.11q-4.64 3.49-7.99 3.54-11.29.16-23.06.47a.83.82 8 0 1-.81-1.07q.84-2.69.36-5.99 3.29-9.27 8.47-17.73Z"/><path fill="#454545" d="M164.5 94.71q.55 2.51 2.01 3.95a.8.8 0 0 1-.56 1.37c-21.77-.18-43.32.07-64.99-.19-2.95-.04-7.95.58-11.99-.09a.54.53 8.1 0 1-.44-.58q.7-5.95 6.22-8.19a1 .99-87.3 0 0 .52-.48l.16-.32a.29.29 0 0 0-.24-.42l-.94-.05q20.65-9.57 43-13.97c5.51-1.08 22.93 14.93 27.25 18.97Z"/><path fill="#1e94ff" d="M195.26 88.76q1.94 3.86 2.59 8.11a.64.64 0 0 0 .72.53l1.33-.18a1.31 1.28-31.3 0 1 .91.21q2.57 1.73 5.25-.22a1.29 1.29 0 0 1 .78-.24q12.21.17 24.42.26c1.57.01 2.85-.76 2.27-2.52a.73.73 0 0 1 .24-.79q.53-.43 1.19-.17 2.29 6.28 3.07 12.69-1.51 2.56-1.28 5.63a1.34 1.33-29.5 0 1-.25.89q-2.02 2.74-6.23 2.76-16.16.09-32.34-.03a.58.57-2.9 0 1-.56-.5c-.17-1.38-.44-9.16-1.09-9.66a.34.34 0 0 0-.49.08l-.25.39-.28-17.24Zm-170.44.22q.48 3.3-.36 5.99a.83.82 8 0 0 .81 1.07q11.77-.31 23.06-.47 3.35-.05 7.99-3.54a.38.37-33.4 0 1 .56.11q.3.53.12 1.32-19.62 14.25-35.15 32.85c-1.45 1.73-3.8 1.67-3.8-.95q.01-18.79 6.77-36.38Z"/><path fill="#393939" d="m94.25 89.71.94.05a.29.29 0 0 1 .24.42l-.16.32a1 .99-87.3 0 1-.52.48q-5.52 2.24-6.22 8.19a.54.53 8.1 0 0 .44.58c4.04.67 9.04.05 11.99.09 21.67.26 43.22.01 64.99.19a.8.8 0 0 0 .56-1.37q-1.46-1.44-2.01-3.95 10.04 9.42 12.94 13.35 3.36 4.57 1.27 11.19-.82-.37-1.34.12a1.14 1.11 69.4 0 0-.36.83l-.01 2.38a.55.54 88.9 0 1-.52.55c-28.3 1.11-56.95.4-85.28.29-2.26-.01-5.14.53-7.84.25a.68.68 0 0 1-.61-.68l.01-3.73a.33.32-14.1 0 0-.48-.28l-.49.27q1.8-9.22 4.62-18.17c1.91-6.06 2.35-9.39 7.84-11.37Z"/><path fill="#1987ff" d="m62.71 153.5-.45-7.87a.49.48-79.8 0 0-.28-.41l-.36-.18a.42.42 0 0 0-.59.27c-.35 1.25-1.23 1.96-2.59 1.97q-11.23.14-22.45.25c-4 .04-9.44.73-14.21.51a.65.63-3.3 0 1-.6-.52q-.95-5.16 2.44-8.93c.73-.81 1.96-1.06 2.51-2.29a1.14 1.13-44.7 0 0 .01-.9q-.23-.54-.12-1.19 18.06-19.25 40.76-32.82a.84.84 0 0 1 1 .11l1.12 1.06a1.02 1.01-61.1 0 1 .28.99q-6.45 24.54-6.47 49.95Zm175.32-47.06q1.96 5.24-.8 8.54-18.13 21.7-45.32 38.07a1.46 1.46 0 0 1-.93.2q-2.36-.27-1.75-2.76 5.66-22.99 6.31-44.49l.25-.39a.34.34 0 0 1 .49-.08c.65.5.92 8.28 1.09 9.66a.58.57-2.9 0 0 .56.5q16.18.12 32.34.03 4.21-.02 6.23-2.76a1.34 1.33-29.5 0 0 .25-.89q-.23-3.07 1.28-5.63Z"/><path fill="#212121" d="M178.71 119.25q-.51 7.7-2.17 15.25l-.14-.94a.48.48 0 0 0-.67-.36c-.6.28-2.97 11.59-3.4 13.22-.6 2.25-1.55 3.87-2.68 5.85a2.03 2.02-73.9 0 1-1.82 1.01q-9.58-.31-19.08.04-3.16.11-4.65.8a.61.6 77.9 0 0-.35.55v.45a.59.59 0 0 1-.62.59l-1.73-.06a.67.66 86.4 0 1-.64-.58l-.12-.96a.74.73-2.7 0 0-.71-.64q-20.46-.78-40.93-1-2.45-.02-4.05.81a1.32 1.32 0 0 1-.9.11c-2.28-.58-3.83 1.68-6.13-.81q-2.94-3.19-5.92-6.36a1.41 1.4 21.2 0 1-.38-.85q-.18-2.17-2.37-2.08c-1.64-4.34 1.56-18.97 2.54-24.04l.49-.27a.33.32-14.1 0 1 .48.28l-.01 3.73a.68.68 0 0 0 .61.68c2.7.28 5.58-.26 7.84-.25 28.33.11 56.98.82 85.28-.29a.55.54 88.9 0 0 .52-.55l.01-2.38a1.14 1.11 69.4 0 1 .36-.83q.52-.49 1.34-.12Z"/><path fill="#1376ff" d="M231.96 169.5q-1.56.79-2.04 2.36-.15.48-.49.85c-1.41 1.55-3.17 4.69-5.29 4.95a.12.12 0 0 1-.14-.12v-.3a.17.17 0 0 0-.17-.17l-42.2-.12a.42.42 0 0 1-.19-.79q3.28-1.7 5.06-5.2 28.95-17.36 50.53-43.29a1.22 1.21-73.1 0 1 .82-.44c1.57-.16 2.34.68 2.33 2.25q-.04 20.86-8.22 40.02Z"/><path fill="#121212" d="M176.54 134.5c-1.19 6.38-4.67 26.74-10.69 29.65q-20.96 10.12-43.86 14.57c-2.62.51-4.65.07-6.96-1.53q-19.35-13.39-34.77-31.21-.7-.81-1.01-2.69 2.19-.09 2.37 2.08a1.41 1.4 21.2 0 0 .38.85q2.98 3.17 5.92 6.36c2.3 2.49 3.85.23 6.13.81a1.32 1.32 0 0 0 .9-.11q1.6-.83 4.05-.81 20.47.22 40.93 1a.74.73-2.7 0 1 .71.64l.12.96a.67.66 86.4 0 0 .64.58l1.73.06a.59.59 0 0 0 .62-.59v-.45a.61.6 77.9 0 1 .35-.55q1.49-.69 4.65-.8 9.5-.35 19.08-.04a2.03 2.02-73.9 0 0 1.82-1.01c1.13-1.98 2.08-3.6 2.68-5.85.43-1.63 2.8-12.94 3.4-13.22a.48.48 0 0 1 .67.36l.14.94Z"/><path fill="#1376ff" d="M26.02 134.21q-.11.65.12 1.19a1.14 1.13-44.7 0 1-.01.9c-.55 1.23-1.78 1.48-2.51 2.29q-3.39 3.77-2.44 8.93a.65.63-3.3 0 0 .6.52c4.77.22 10.21-.47 14.21-.51q11.22-.11 22.45-.25c1.36-.01 2.24-.72 2.59-1.97a.42.42 0 0 1 .59-.27l.36.18a.49.48-79.8 0 1 .28.41l.45 7.87.5 14-1.08-.3a1.3 1.26-49.2 0 0-.9.08c-3.23 1.54-5.93.04-8.7.01q-7.37-.05-14.75-.07c-3.04 0-6.53 1.1-10.09.67a.78.76 83.3 0 1-.65-.53q-1.22-3.69-3.79-6.6-2.99-8.24-3.78-15.51c-.46-4.23 3.79-8.24 6.55-11.04Z"/><path fill="#0d69ff" d="M23.25 160.76q2.57 2.91 3.79 6.6a.78.76 83.3 0 0 .65.53c3.56.43 7.05-.67 10.09-.67q7.38.02 14.75.07c2.77.03 5.47 1.53 8.7-.01a1.3 1.26-49.2 0 1 .9-.08l1.08.3 2 17q-2.46 1.2-2.17 3.01a1.44 1.44 0 0 1-1.57 1.65c-7.57-.77-14.73-.27-22.44-.15a1.21 1.19-22.2 0 1-.85-.35c-2.43-2.49-2.87-5.73-6.18-7.37q-5.65-9.68-8.75-20.53Zm70.79 20.49.44 1.56a1.48 1.46-80.3 0 0 .56.8q1.61 1.16.83 3.35a.67.66-81.6 0 1-.57.43q-7.93.43-15.81-.33a.71.7.5 0 1-.63-.64q-.29-2.91-2.57-4.42-1.03-6.92-.74-13.74a1.59 1.59 0 0 1 2.64-1.12l15.85 14.11Zm137.92-11.75q-2.53 6.52-6.17 12.5-3.5 1.11-5.29 4.41a.91.89-77.1 0 1-.73.47q-8.81.65-17.62.69c-2.27.01-5.17.7-7.8.45-10.08-.96-20.24-.54-30.35-.39q-1.58.02-2.44-1.26a.4.4 0 0 0-.68.04l-.55 1.04q-.58 1.08-.46-.14.24-2.39 2.42-2.3a1.81 1.79 30.2 0 0 1.05-.27l7.32-4.43a.41.41 0 0 0 .13-.57q-.09-.15-.29-.28l16-8.5q-1.78 3.5-5.06 5.2a.42.42 0 0 0 .19.79l42.2.12a.17.17 0 0 1 .17.17v.3a.12.12 0 0 0 .14.12c2.12-.26 3.88-3.4 5.29-4.95q.34-.37.49-.85.48-1.57 2.04-2.36Z"/><path fill="#095dff" d="M170.5 179.46q.2.13.29.28a.41.41 0 0 1-.13.57l-7.32 4.43a1.81 1.79 30.2 0 1-1.05.27q-2.18-.09-2.42 2.3-.12 1.22.46.14l.55-1.04a.4.4 0 0 1 .68-.04q.86 1.28 2.44 1.26c10.11-.15 20.27-.57 30.35.39 2.63.25 5.53-.44 7.8-.45q8.81-.04 17.62-.69a.91.89-77.1 0 0 .73-.47q1.79-3.3 5.29-4.41-10.22 18.55-26.82 31.73c-1.52 1.2-4.8 1.12-6.96.68q-28.35-5.78-53.77-19.82a1.74 1.74 0 0 1-.85-1.06q-.46-1.61 1.35-2.15 16.29-4.88 31.76-11.92ZM32 181.29c3.31 1.64 3.75 4.88 6.18 7.37a1.21 1.19-22.2 0 0 .85.35c7.71-.12 14.87-.62 22.44.15a1.44 1.44 0 0 0 1.57-1.65q-.29-1.81 2.17-3.01 3.25 18.47 9.69 36.07a1.39 1.36 46.1 0 1-.01.95c-.57 1.5-1.78 1.83-3.19.99Q46.24 207.36 32 181.29Zm62.04-.04q17.84 14.09 38.26 23.93.02 2.87 1.56 3.97a.66.65-26.6 0 1-.4 1.19c-17.18-.52-33.91-.06-50.85-.26a.69.68 80.5 0 1-.65-.47l-.82-2.42a.36.36 0 0 0-.56-.16l-.33.26q-3.14-12.46-3.96-25.29 2.28 1.51 2.57 4.42a.71.7.5 0 0 .63.64q7.88.76 15.81.33a.67.66-81.6 0 0 .57-.43q.78-2.19-.83-3.35a1.48 1.46-80.3 0 1-.56-.8l-.44-1.56Z"/><path fill="#034dff" d="M132.3 205.18q23.95 11.05 50.1 15.7a2.16 2.14-14 0 1 1.33.79c1.24 1.56-.27 2.86-1.68 3.59q-44.39 23.07-92.03 6.24c-5.45-1.92-8.75-19.01-9.77-24.21l.33-.26a.36.36 0 0 1 .56.16l.82 2.42a.69.68 80.5 0 0 .65.47c16.94.2 33.67-.26 50.85.26a.66.65-26.6 0 0 .4-1.19q-1.54-1.1-1.56-3.97Z"/></svg>