<?xml version="1.0" encoding="UTF-8"?>
<svg xmlns="http://www.w3.org/2000/svg" xmlns:xlink="http://www.w3.org/1999/xlink" width="566.93pt" height="566.93pt" viewBox="0 0 566.93 566.93" version="1.1">
<defs>
<clipPath id="clip1">
  <path d="M 0 0 L 566.929688 0 L 566.929688 566.929688 L 0 566.929688 Z M 0 0 "/>
</clipPath>
</defs>
<g id="surface1">
<g clip-path="url(#clip1)" clip-rule="nonzero">
<path style=" stroke:none;fill-rule:nonzero;fill:rgb(13.299561%,11.799622%,12.199402%);fill-opacity:1;" d="M 0 566.929688 L 566.929688 566.929688 L 566.929688 0 L 0 0 Z M 0 566.929688 "/>
</g>
<path style=" stroke:none;fill-rule:nonzero;fill:rgb(100%,100%,100%);fill-opacity:1;" d="M 64.511719 224.496094 C 118.136719 207.34375 179.847656 224.691406 226.96875 310.851563 C 231.203125 319.128906 236.675781 317.058594 236.378906 308.632813 C 237.414063 299.90625 236.035156 263.300781 213.164063 230.882813 C 212.402344 229.203125 213.214844 228.289063 214.449219 227.058594 C 219.820313 223.054688 259.496094 214.636719 303.855469 182.894531 C 307.28125 180.554688 322.09375 173.53125 319.628906 152.484375 C 312.234375 100.585938 270.832031 65.390625 259.300781 58.292969 C 247.765625 51.195313 249.050781 63.617188 249.246094 65.492188 C 247.175781 105.609375 235.128906 164.558594 192.207031 204.78125 C 176.890625 200.441406 171.46875 189.597656 171.46875 189.597656 C 171.46875 189.597656 229.332031 114.089844 214.347656 53.761719 C 210.40625 36.804688 205.773438 30.789063 186.84375 34.636719 C 167.917969 38.480469 122.96875 52.675781 122.96875 52.675781 C 122.96875 52.675781 115.96875 55.335938 121.488281 62.433594 C 127.007813 69.53125 153.625 96.34375 131.9375 171.265625 C 112.222656 164.558594 68.847656 156.28125 64.511719 168.109375 C 60.171875 179.9375 45.191406 223.90625 64.511719 224.496094 "/>
<path style=" stroke:none;fill-rule:nonzero;fill:rgb(100%,100%,100%);fill-opacity:1;" d="M 249.539063 253.476563 C 248.949219 256.582031 252.203125 274.769531 249.539063 289.851563 C 245.105469 301.089844 243.605469 307.894531 252.339844 314.695313 C 261.074219 321.496094 326.332031 352.25 364.578125 393.257813 C 379.21875 408.144531 386.613281 389.664063 375.816406 381.085938 C 372.859375 377.832031 358.960938 365.414063 359.257813 361.125 C 359.554688 356.835938 367.535156 365.117188 370.492188 368.222656 C 362.511719 352.105469 379.957031 331.550781 398.589844 354.765625 C 406.179688 362.109375 400.855469 379.460938 394.351563 384.191406 C 401.476563 377.0625 389.074219 359.300781 379.167969 369.207031 C 374.042969 374.136719 388.140625 385.273438 391.292969 388.035156 C 394.449219 390.796875 405.6875 381.429688 409.628906 374.925781 C 412.53125 370.886719 416.703125 367.480469 422.742188 341.410156 C 424.664063 334.65625 427.152344 332.210938 433.1875 326.175781 C 439.226563 320.136719 527.230469 246.378906 536.992188 215.328125 C 542.710938 199.160156 539.949219 193.445313 527.824219 204.976563 C 515.699219 216.511719 448.566406 266.785156 423.136719 273.882813 C 397.703125 280.980469 393.265625 268.117188 396.964844 265.011719 C 399.210938 262.761719 455.761719 201.625 392.917969 234.550781 C 369.902344 243.027344 347.429688 224.296875 342.695313 207.539063 C 332.714844 175.625 333.035156 169.292969 310.363281 188.8125 C 298.140625 198.867188 276.453125 209.710938 268.171875 212.664063 C 243.328125 218.582031 233.472656 246.378906 253.582031 249.140625 C 273.691406 251.898438 284.585938 248.746094 279.113281 254.511719 C 273.644531 260.28125 265.511719 265.453125 274.679688 270.480469 C 283.84375 275.511719 301.351563 287.929688 302.355469 289.113281 C 303.363281 290.296875 311.496094 291.332031 313.863281 285.417969 C 316.226563 279.503906 314.15625 277.875 312.53125 276.988281 C 310.902344 276.101563 312.679688 273.4375 316.523438 273.882813 C 320.367188 274.328125 329.535156 270.777344 331.753906 269.152344 C 333.972656 267.523438 359.996094 263.238281 366.355469 272.257813 C 359.136719 274.511719 357.039063 269.839844 346.835938 273.4375 C 341.242188 275.601563 327.65625 277.324219 321.253906 291.773438 C 316.472656 302.570313 314.699219 324.847656 295.183594 318.539063 C 275.664063 312.230469 255.601563 306.265625 258.707031 286.601563 C 261.8125 266.933594 260.480469 254.21875 249.539063 253.476563 "/>
<path style=" stroke:none;fill-rule:nonzero;fill:rgb(13.299561%,11.799622%,12.199402%);fill-opacity:1;" d="M 284.632813 268.855469 C 293.996094 274.078125 297.152344 277.527344 298.335938 278.8125 C 299.519531 280.09375 306.027344 280.683594 305.335938 274.574219 C 302.574219 269.546875 292.617188 262.644531 290.054688 262.546875 C 287.492188 262.449219 282.464844 263.136719 284.632813 268.855469 "/>
<path style=" stroke:none;fill-rule:nonzero;fill:rgb(100%,100%,100%);fill-opacity:1;" d="M 64.863281 437.367188 L 64.863281 460.964844 C 67.242188 461.296875 69.554688 461.460938 71.800781 461.460938 C 77.753906 461.460938 82.082031 460.503906 84.792969 458.585938 C 87.503906 456.667969 88.855469 453.246094 88.855469 448.324219 C 88.855469 444.257813 87.402344 441.332031 84.492188 439.546875 C 81.585938 437.761719 76.992188 436.871094 70.710938 436.871094 C 69.71875 436.871094 67.769531 437.035156 64.863281 437.367188 M 94.757813 501.074219 L 75.371094 469.886719 C 73.15625 469.886719 69.65625 469.722656 64.863281 469.394531 L 64.863281 501.074219 L 54.945313 501.074219 L 54.945313 428.441406 C 55.308594 428.441406 57.878906 428.320313 62.65625 428.070313 C 67.429688 427.824219 70.910156 427.699219 73.089844 427.699219 C 90.542969 427.699219 99.269531 434.640625 99.269531 448.519531 C 99.269531 453.082031 97.863281 457.1875 95.054688 460.839844 C 92.246094 464.492188 88.90625 466.765625 85.039063 467.660156 L 106.109375 501.074219 "/>
<path style=" stroke:none;fill-rule:nonzero;fill:rgb(100%,100%,100%);fill-opacity:1;" d="M 145.523438 501.074219 L 145.523438 467.707031 C 145.523438 463.742188 144.550781 460.617188 142.597656 458.339844 C 140.648438 456.058594 137.90625 454.917969 134.371094 454.917969 C 132.089844 454.917969 129.800781 455.585938 127.503906 456.925781 C 125.207031 458.261719 123.445313 459.824219 122.222656 461.609375 L 122.222656 501.074219 L 112.804688 501.074219 L 112.804688 426.210938 L 122.222656 426.210938 L 122.222656 453.824219 C 123.480469 451.875 125.503906 450.246094 128.296875 448.941406 C 131.089844 447.636719 133.972656 446.984375 136.949219 446.984375 C 142.566406 446.984375 146.96875 448.835938 150.160156 452.535156 C 153.351563 456.238281 154.945313 461.296875 154.945313 467.707031 L 154.945313 501.074219 "/>
<path style=" stroke:none;fill-rule:nonzero;fill:rgb(100%,100%,100%);fill-opacity:1;" d="M 259.15625 474.402344 C 259.15625 487.71875 263.867188 494.378906 273.285156 494.378906 C 277.683594 494.378906 281.128906 492.59375 283.625 489.027344 C 286.121094 485.457031 287.367188 480.582031 287.367188 474.402344 C 287.367188 461.246094 282.675781 454.671875 273.285156 454.671875 C 268.992188 454.671875 265.5625 456.421875 263 459.925781 C 260.4375 463.425781 259.15625 468.253906 259.15625 474.402344 M 249.242188 474.402344 C 249.242188 466.203125 251.449219 459.585938 255.859375 454.546875 C 260.273438 449.503906 266.082031 446.984375 273.285156 446.984375 C 280.890625 446.984375 286.789063 449.40625 290.984375 454.246094 C 295.183594 459.089844 297.28125 465.808594 297.28125 474.402344 C 297.28125 482.960938 295.136719 489.710938 290.839844 494.652344 C 286.539063 499.59375 280.691406 502.066406 273.285156 502.066406 C 265.71875 502.066406 259.816406 499.570313 255.589844 494.578125 C 251.355469 489.589844 249.242188 482.863281 249.242188 474.402344 "/>
<path style=" stroke:none;fill-rule:nonzero;fill:rgb(92.89856%,10.998535%,13.699341%);fill-opacity:1;" d="M 347.257813 452.289063 L 342.597656 458.933594 C 341.640625 457.976563 339.945313 457.066406 337.515625 456.207031 C 335.085938 455.347656 332.699219 454.917969 330.351563 454.917969 C 325.230469 454.917969 321.164063 456.710938 318.15625 460.296875 C 315.148438 463.882813 313.644531 468.800781 313.644531 475.046875 C 313.644531 481.257813 315.179688 485.992188 318.253906 489.25 C 321.328125 492.503906 325.59375 494.132813 331.046875 494.132813 C 335.277344 494.132813 339.539063 492.496094 343.835938 489.226563 L 347.554688 497.15625 C 342.496094 500.429688 336.234375 502.066406 328.765625 502.066406 C 321.527344 502.066406 315.542969 499.636719 310.816406 494.777344 C 306.09375 489.917969 303.726563 483.34375 303.726563 475.046875 C 303.726563 466.585938 306.183594 459.792969 311.089844 454.667969 C 315.996094 449.546875 322.71875 446.984375 331.242188 446.984375 C 333.988281 446.984375 336.960938 447.5625 340.167969 448.71875 C 343.375 449.875 345.738281 451.066406 347.257813 452.289063 "/>
<path style=" stroke:none;fill-rule:nonzero;fill:rgb(92.89856%,10.998535%,13.699341%);fill-opacity:1;" d="M 379.335938 454.917969 C 375.136719 454.917969 371.617188 456.269531 368.773438 458.980469 C 366.0625 461.5625 364.527344 464.765625 364.164063 468.601563 L 393.5625 468.601563 C 393.5625 464.800781 392.375 461.625 389.992188 459.082031 C 387.382813 456.304688 383.828125 454.917969 379.335938 454.917969 M 402.1875 475.441406 L 363.914063 475.441406 C 363.914063 481.65625 365.617188 486.433594 369.023438 489.769531 C 372.03125 492.679688 375.898438 494.132813 380.621094 494.132813 C 386.011719 494.132813 390.507813 492.5625 394.109375 489.421875 L 398.074219 496.214844 C 396.621094 497.667969 394.390625 498.925781 391.382813 499.980469 C 387.613281 501.371094 383.414063 502.066406 378.789063 502.066406 C 372.113281 502.066406 366.445313 499.800781 361.785156 495.273438 C 356.59375 490.28125 354 483.574219 354 475.144531 C 354 466.386719 356.660156 459.363281 361.980469 454.074219 C 366.742188 449.347656 372.378906 446.984375 378.890625 446.984375 C 386.457031 446.984375 392.390625 449.117188 396.6875 453.378906 C 400.851563 457.480469 402.933594 462.914063 402.933594 469.691406 C 402.933594 471.773438 402.6875 473.691406 402.1875 475.441406 "/>
<path style=" stroke:none;fill-rule:nonzero;fill:rgb(92.89856%,10.998535%,13.699341%);fill-opacity:1;" d="M 441.703125 457.050781 C 439.652344 455.628906 437.589844 454.917969 435.507813 454.917969 C 432.167969 454.917969 429.25 456.453125 426.757813 459.527344 C 424.261719 462.601563 423.011719 466.304688 423.011719 470.632813 L 423.011719 501.074219 L 413.59375 501.074219 L 413.59375 447.976563 L 423.011719 447.976563 L 423.011719 456.453125 C 426.449219 450.140625 431.558594 446.984375 438.332031 446.984375 C 440.015625 446.984375 442.445313 447.28125 445.621094 447.875 "/>
<path style=" stroke:none;fill-rule:nonzero;fill:rgb(92.89856%,10.998535%,13.699341%);fill-opacity:1;" d="M 458.757813 474.402344 C 458.757813 487.71875 463.46875 494.378906 472.886719 494.378906 C 477.285156 494.378906 480.730469 492.59375 483.226563 489.027344 C 485.722656 485.457031 486.96875 480.582031 486.96875 474.402344 C 486.96875 461.246094 482.273438 454.671875 472.886719 454.671875 C 468.59375 454.671875 465.160156 456.421875 462.601563 459.925781 C 460.039063 463.425781 458.757813 468.253906 458.757813 474.402344 M 448.84375 474.402344 C 448.84375 466.203125 451.050781 459.585938 455.460938 454.546875 C 459.875 449.503906 465.683594 446.984375 472.886719 446.984375 C 480.488281 446.984375 486.390625 449.40625 490.589844 454.246094 C 494.785156 459.089844 496.886719 465.808594 496.886719 474.402344 C 496.886719 482.960938 494.734375 489.710938 490.441406 494.652344 C 486.140625 499.59375 480.292969 502.066406 472.886719 502.066406 C 465.320313 502.066406 459.421875 499.570313 455.191406 494.578125 C 450.957031 489.589844 448.84375 482.863281 448.84375 474.402344 "/>
<path style=" stroke:none;fill-rule:nonzero;fill:rgb(92.89856%,10.998535%,13.699341%);fill-opacity:1;" d="M 503.328125 497.902344 L 506.648438 488.976563 C 511.90625 492.414063 516.136719 494.132813 519.34375 494.132813 C 525.160156 494.132813 528.066406 491.6875 528.066406 486.796875 C 528.066406 483.292969 525.257813 480.285156 519.640625 477.773438 C 515.308594 475.789063 512.394531 474.285156 510.890625 473.261719 C 509.386719 472.238281 508.078125 471.070313 506.972656 469.765625 C 505.867188 468.460938 505.039063 467.074219 504.492188 465.601563 C 503.949219 464.128906 503.675781 462.550781 503.675781 460.867188 C 503.675781 456.503906 505.261719 453.097656 508.433594 450.652344 C 511.609375 448.207031 515.757813 446.984375 520.878906 446.984375 C 524.746094 446.984375 529.621094 448.207031 535.503906 450.652344 L 532.828125 459.378906 C 529.09375 456.40625 525.34375 454.917969 521.574219 454.917969 C 519.324219 454.917969 517.433594 455.445313 515.894531 456.503906 C 514.359375 457.5625 513.59375 458.898438 513.59375 460.519531 C 513.59375 463.925781 515.523438 466.503906 519.390625 468.253906 L 526.136719 471.328125 C 530.265625 473.210938 533.273438 475.359375 535.15625 477.773438 C 537.042969 480.183594 537.984375 483.210938 537.984375 486.84375 C 537.984375 491.605469 536.316406 495.332031 532.976563 498.023438 C 529.640625 500.71875 525.011719 502.066406 519.09375 502.066406 C 513.507813 502.066406 508.253906 500.675781 503.328125 497.902344 "/>
<path style=" stroke:none;fill-rule:nonzero;fill:rgb(100%,100%,100%);fill-opacity:1;" d="M 178 439.546875 C 179.617188 439.546875 180.996094 438.976563 182.140625 437.835938 C 183.277344 436.695313 183.847656 435.316406 183.847656 433.695313 C 183.847656 432.109375 183.277344 430.746094 182.140625 429.609375 C 180.996094 428.46875 179.617188 427.898438 178 427.898438 C 176.378906 427.898438 175.007813 428.460938 173.882813 429.582031 C 172.761719 430.707031 172.199219 432.078125 172.199219 433.695313 C 172.199219 435.316406 172.769531 436.695313 173.90625 437.835938 C 175.050781 438.976563 176.410156 439.546875 178 439.546875 "/>
<path style=" stroke:none;fill-rule:nonzero;fill:rgb(100%,100%,100%);fill-opacity:1;" d="M 172.84375 455.910156 L 172.84375 501.074219 L 182.261719 501.074219 L 182.261719 447.976563 L 172.84375 447.976563 "/>
<path style=" stroke:none;fill-rule:nonzero;fill:rgb(100%,100%,100%);fill-opacity:1;" d="M 221.875 446.984375 C 214.835938 446.984375 209.761719 449.59375 206.65625 454.816406 L 206.65625 447.976563 L 197.234375 447.976563 L 197.234375 501.074219 L 206.65625 501.074219 L 206.65625 461.609375 C 207.910156 459.726563 209.710938 458.140625 212.058594 456.851563 C 214.40625 455.5625 216.652344 454.917969 218.800781 454.917969 C 222.800781 454.917969 225.652344 456.046875 227.355469 458.3125 C 229.054688 460.578125 229.90625 464.535156 229.90625 470.1875 L 229.90625 501.074219 L 239.324219 501.074219 L 239.324219 468.203125 C 239.324219 454.058594 233.511719 446.984375 221.875 446.984375 "/>
</g>
</svg>
