<svg xmlns="http://www.w3.org/2000/svg" xmlns:xlink="http://www.w3.org/1999/xlink" viewBox="0 0 48 48" class="logo-NAZA"><defs><path id="icon_raw_svg__a" d="M12 0a12 12 0 0 1 12 12v12H12a12 12 0 1 1 0-24z"></path><path id="icon_raw_svg__c" d="M0 24V11.7A12 12 0 1 1 12 24H0z"></path></defs><g fill="none" fill-rule="evenodd"><path fill="#1988E0" d="M35.3 9.7a16 16 0 0 1-.6 23.2L24 43 13.3 33l-.6-.7A16 16 0 1 1 35.3 9.7z"></path><g transform="translate(0 19)"><mask id="icon_raw_svg__b" fill="#fff"><use xlink:href="#icon_raw_svg__a"></use></mask><use fill="#2CD4ED" xlink:href="#icon_raw_svg__a"></use><path fill="#0DB4E2" d="M35.3-9.3a16 16 0 0 1-.6 23.2L24 24 13.3 14l-.6-.7A16 16 0 1 1 35.3-9.3z" mask="url(#icon_raw_svg__b)"></path></g><g transform="translate(24 19)"><mask id="icon_raw_svg__d" fill="#fff"><use xlink:href="#icon_raw_svg__c"></use></mask><use fill="#3169FF" xlink:href="#icon_raw_svg__c"></use><path fill="#3153FF" d="M11.3-9.3a16 16 0 0 1-.6 23.2L0 24l-10.7-10-.6-.7A16 16 0 1 1 11.3-9.3z" mask="url(#icon_raw_svg__d)"></path></g></g></svg>